<svg width="296" height="141" viewBox="0 0 296 141" fill="none" xmlns="http://www.w3.org/2000/svg">
<rect x="83" y="45" width="130" height="51" rx="6" fill="white" stroke="#D3D4D5"/>
<rect x="83" y="45" width="6" height="51" rx="3" fill="#8952E0"/>
<rect x="83" y="45" width="6" height="51" fill="#8952E0"/>
<rect x="83" y="45" width="6" height="51" rx="3" fill="#8952E0"/>
<!-- icon circle -->
<circle cx="103" cy="70" r="10" fill="#E8D9FC"/>
<path d="M103 64V72" stroke="#8952E0" stroke-width="2" stroke-linecap="round"/>
<circle cx="103" cy="75" r="1.5" fill="#8952E0"/>
<!-- text lines -->
<rect x="120" y="61" width="50" height="5" rx="2" fill="#33373D"/>
<rect x="120" y="72" width="70" height="4" rx="2" fill="#E7E7E8"/>
<rect x="120" y="80" width="55" height="4" rx="2" fill="#E7E7E8"/>
<!-- button -->
<rect x="186" y="60" width="20" height="20" rx="4" fill="#8952E0" opacity="0"/>
<rect x="186" y="63" width="18" height="8" rx="4" fill="#8952E0"/>
<rect x="189" y="66" width="12" height="3" rx="1.5" fill="white"/>
</svg>
