<svg width="296" height="141" viewBox="0 0 296 141" fill="none" xmlns="http://www.w3.org/2000/svg">
<rect x="83" y="20" width="130" height="101" rx="6" fill="#F9FAFA" stroke="#D3D4D5"/>
<!-- left half - image A -->
<clipPath id="left-clip">
  <rect x="83" y="20" width="65" height="101" rx="6"/>
</clipPath>
<rect x="83" y="20" width="65" height="101" fill="#E7E7E8" clip-path="url(#left-clip)"/>
<path d="M90 95L110 65L130 80L148 60" stroke="#D3D4D5" stroke-width="2" fill="none" clip-path="url(#left-clip)"/>
<!-- right half - image B (brighter) -->
<clipPath id="right-clip">
  <rect x="148" y="20" width="65" height="101" rx="6"/>
</clipPath>
<rect x="148" y="20" width="65" height="101" fill="#D9EFFF" clip-path="url(#right-clip)"/>
<path d="M148 95L168 65L188 80L213 60" stroke="#AAD4F5" stroke-width="2" fill="none" clip-path="url(#right-clip)"/>
<!-- divider -->
<line x1="148" y1="20" x2="148" y2="121" stroke="#33373D" stroke-width="2"/>
<!-- handle -->
<circle cx="148" cy="70" r="12" fill="white" stroke="#33373D" stroke-width="1.5"/>
<path d="M143 70L140 70M153 70L156 70" stroke="#33373D" stroke-width="1.5" stroke-linecap="round"/>
<path d="M141 68L139 70L141 72" stroke="#33373D" stroke-width="1.5" stroke-linecap="round" stroke-linejoin="round"/>
<path d="M155 68L157 70L155 72" stroke="#33373D" stroke-width="1.5" stroke-linecap="round" stroke-linejoin="round"/>
</svg>
