<svg width="296" height="141" viewBox="0 0 296 141" fill="none" xmlns="http://www.w3.org/2000/svg">
<rect x="83" y="25" width="130" height="91" rx="6" fill="white" stroke="#D3D4D5"/>
<rect x="83" y="25" width="130" height="18" rx="6" fill="#F9FAFA"/>
<rect x="83" y="35" width="130" height="8" fill="#F9FAFA"/>
<rect x="83" y="43" width="130" height="1" fill="#E7E7E8"/>
<rect x="91" y="30" width="8" height="8" rx="2" fill="#E7E7E8"/>
<rect x="103" y="30" width="8" height="8" rx="2" fill="#E7E7E8"/>
<rect x="115" y="30" width="8" height="8" rx="2" fill="#E7E7E8"/>
<rect x="127" y="30" width="8" height="8" rx="2" fill="#8952E0"/>
<rect x="139" y="30" width="8" height="8" rx="2" fill="#E7E7E8"/>
<rect x="93" y="53" width="100" height="5" rx="2" fill="#E7E7E8"/>
<rect x="93" y="63" width="80" height="5" rx="2" fill="#E7E7E8"/>
<rect x="93" y="73" width="90" height="5" rx="2" fill="#E7E7E8"/>
<rect x="93" y="83" width="60" height="5" rx="2" fill="#E7E7E8"/>
<rect x="93" y="93" width="75" height="5" rx="2" fill="#E7E7E8"/>
<rect x="93" y="103" width="40" height="5" rx="2" fill="#8952E0" opacity="0.4"/>
</svg>
