<svg width="296" height="141" viewBox="0 0 296 141" fill="none" xmlns="http://www.w3.org/2000/svg">
<rect x="83" y="15" width="130" height="111" rx="6" fill="#F9FAFA" stroke="#D3D4D5"/>
<!-- background image -->
<path d="M90 105L115 75L135 88L155 68L206 105H90Z" fill="#E7E7E8"/>
<!-- dark overlay outside crop -->
<rect x="83" y="15" width="130" height="111" rx="6" fill="black" opacity="0.3"/>
<!-- crop selection -->
<rect x="103" y="30" width="90" height="70" fill="none" stroke="white" stroke-width="1.5"/>
<!-- clear inside crop -->
<rect x="103" y="30" width="90" height="70" fill="white" opacity="0.1"/>
<!-- corner handles -->
<rect x="100" y="27" width="8" height="8" rx="1" fill="white"/>
<rect x="185" y="27" width="8" height="8" rx="1" fill="white"/>
<rect x="100" y="92" width="8" height="8" rx="1" fill="white"/>
<rect x="185" y="92" width="8" height="8" rx="1" fill="white"/>
<!-- grid lines inside crop -->
<line x1="133" y1="30" x2="133" y2="100" stroke="white" stroke-width="0.5" opacity="0.5"/>
<line x1="163" y1="30" x2="163" y2="100" stroke="white" stroke-width="0.5" opacity="0.5"/>
<line x1="103" y1="53" x2="193" y2="53" stroke="white" stroke-width="0.5" opacity="0.5"/>
<line x1="103" y1="77" x2="193" y2="77" stroke="white" stroke-width="0.5" opacity="0.5"/>
<!-- action button -->
<rect x="123" y="108" width="50" height="14" rx="7" fill="#8952E0"/>
<rect x="133" y="113" width="30" height="4" rx="2" fill="white"/>
</svg>
