<svg width="296" height="141" viewBox="0 0 296 141" fill="none" xmlns="http://www.w3.org/2000/svg">
<rect x="83" y="30" width="130" height="81" rx="6" fill="white" stroke="#D3D4D5"/>
<rect x="83" y="30" width="130" height="16" rx="6" fill="#F9FAFA"/>
<rect x="83" y="38" width="130" height="8" fill="#F9FAFA"/>
<rect x="93" y="35" width="30" height="4" rx="2" fill="#D3D4D5"/>
<rect x="153" y="35" width="20" height="4" rx="2" fill="#D3D4D5"/>
<path d="M178 33L180 36H176L178 33Z" fill="#8952E0"/>
<path d="M178 39L180 36H176L178 39Z" fill="#D3D4D5"/>
<rect x="83" y="46" width="130" height="1" fill="#E7E7E8"/>
<rect x="93" y="51" width="40" height="4" rx="2" fill="#E7E7E8"/>
<rect x="153" y="51" width="25" height="4" rx="2" fill="#E7E7E8"/>
<rect x="83" y="60" width="130" height="1" fill="#E7E7E8"/>
<rect x="93" y="66" width="35" height="4" rx="2" fill="#E7E7E8"/>
<rect x="153" y="66" width="30" height="4" rx="2" fill="#E7E7E8"/>
<rect x="83" y="75" width="130" height="1" fill="#E7E7E8"/>
<rect x="93" y="81" width="45" height="4" rx="2" fill="#E7E7E8"/>
<rect x="153" y="81" width="20" height="4" rx="2" fill="#E7E7E8"/>
<rect x="83" y="90" width="130" height="1" fill="#E7E7E8"/>
<rect x="93" y="96" width="38" height="4" rx="2" fill="#E7E7E8"/>
<rect x="153" y="96" width="28" height="4" rx="2" fill="#E7E7E8"/>
<rect x="83" y="105" width="130" height="1" fill="#E7E7E8"/>
</svg>
