<svg width="296" height="141" viewBox="0 0 296 141" fill="none" xmlns="http://www.w3.org/2000/svg">
<rect x="83" y="20" width="130" height="101" rx="6" fill="white" stroke="#D3D4D5"/>
<!-- left panel -->
<rect x="83" y="20" width="60" height="101" rx="6" fill="#F9FAFA"/>
<rect x="83" y="26" width="60" height="95" fill="#F9FAFA"/>
<rect x="91" y="32" width="40" height="5" rx="2" fill="#D3D4D5"/>
<rect x="91" y="43" width="35" height="4" rx="2" fill="#E7E7E8"/>
<rect x="91" y="52" width="30" height="4" rx="2" fill="#8952E0" opacity="0.6"/>
<rect x="91" y="61" width="38" height="4" rx="2" fill="#E7E7E8"/>
<rect x="91" y="70" width="25" height="4" rx="2" fill="#E7E7E8"/>
<!-- divider -->
<rect x="143" y="20" width="3" height="101" fill="#D3D4D5"/>
<!-- resize dots -->
<circle cx="144" cy="68" r="1.5" fill="#ABADAF"/>
<circle cx="144" cy="73" r="1.5" fill="#ABADAF"/>
<circle cx="144" cy="78" r="1.5" fill="#ABADAF"/>
<!-- right panel -->
<rect x="154" y="32" width="50" height="5" rx="2" fill="#D3D4D5"/>
<rect x="154" y="43" width="50" height="4" rx="2" fill="#E7E7E8"/>
<rect x="154" y="52" width="40" height="4" rx="2" fill="#E7E7E8"/>
<rect x="154" y="61" width="45" height="4" rx="2" fill="#E7E7E8"/>
<rect x="154" y="70" width="35" height="4" rx="2" fill="#E7E7E8"/>
</svg>
