<svg width="296" height="141" viewBox="0 0 296 141" fill="none" xmlns="http://www.w3.org/2000/svg">
<rect x="83" y="25" width="130" height="22" rx="6" fill="white" stroke="#D3D4D5"/>
<rect x="93" y="33" width="80" height="5" rx="2" fill="#E7E7E8"/>
<path d="M201 32L205 36.5L209 32" stroke="#D3D4D5" stroke-width="1.5" stroke-linecap="round" stroke-linejoin="round"/>
<!-- dropdown -->
<rect x="83" y="50" width="130" height="70" rx="6" fill="white" stroke="#D3D4D5"/>
<rect x="93" y="59" width="20" height="5" rx="2" fill="#D3D4D5"/>
<rect x="93" y="70" width="70" height="5" rx="2" fill="#33373D"/>
<rect x="93" y="70" width="130" height="14" fill="#F3EDFD" x1="83"/>
<rect x="83" y="70" width="130" height="14" fill="#F3EDFD"/>
<rect x="93" y="74" width="70" height="5" rx="2" fill="#8952E0"/>
<rect x="93" y="89" width="55" height="5" rx="2" fill="#E7E7E8"/>
<rect x="93" y="100" width="80" height="5" rx="2" fill="#E7E7E8"/>
<rect x="93" y="111" width="45" height="5" rx="2" fill="#E7E7E8"/>
</svg>
