<svg width="296" height="141" viewBox="0 0 296 141" fill="none" xmlns="http://www.w3.org/2000/svg">
<rect x="83" y="25" width="130" height="91" rx="6" fill="#1A1A1A"/>
<rect x="83" y="25" width="130" height="91" rx="6" stroke="#D3D4D5"/>
<path d="M134 66L160 76L134 86V66Z" fill="white" opacity="0.9"/>
<rect x="83" y="96" width="130" height="20" rx="0" fill="#222"/>
<rect x="83" y="106" width="130" height="10" rx="0" fill="#222"/>
<rect x="83" y="116" width="130" height="4" rx="2" fill="#222"/>
<rect x="83" y="96" width="90" height="2" rx="1" fill="#8952E0"/>
<rect x="83" y="96" width="130" height="2" rx="1" fill="#555"/>
<rect x="83" y="96" width="90" height="2" rx="1" fill="#8952E0"/>
<circle cx="173" cy="97" r="4" fill="white"/>
<rect x="93" y="103" width="8" height="8" rx="2" fill="#D3D4D5" opacity="0.5"/>
<rect x="183" y="103" width="8" height="8" rx="2" fill="#D3D4D5" opacity="0.5"/>
<rect x="195" y="103" width="8" height="8" rx="2" fill="#D3D4D5" opacity="0.5"/>
</svg>
